<svg width="60" height="61" fill="none" xmlns="http://www.w3.org/2000/svg"><path d="M29.546 60.008c16.053 0 29.068-13.212 29.068-29.509S45.6.991 29.546.991C13.492.991.478 14.202.478 30.5c0 16.297 13.014 29.509 29.068 29.509z" fill="url(#a)"/><path d="M30 60.827C13.525 60.827.124 47.228.124 30.499S13.52.172 29.999.172c16.48 0 29.875 13.598 29.875 30.327 0 16.73-13.402 30.328-29.875 30.328zM30 1.81C14.416 1.81 1.737 14.681 1.737 30.5c0 15.817 12.68 28.688 28.261 28.688 15.582 0 28.261-12.874 28.261-28.689S45.578 1.81 30 1.81z" fill="#1A1A1A"/><defs><linearGradient id="a" x1="6.164" y1="11.745" x2="45.846" y2="42.631" gradientUnits="userSpaceOnUse"><stop stop-color="#FF4F2B"/><stop offset=".11" stop-color="#FF684A"/><stop offset=".34" stop-color="#FF9D89"/><stop offset=".56" stop-color="#FFC7BC"/><stop offset=".75" stop-color="#FFE6E1"/><stop offset=".9" stop-color="#FFF8F7"/><stop offset="1" stop-color="#fff"/></linearGradient></defs></svg>