<svg width="152" height="214" fill="none" xmlns="http://www.w3.org/2000/svg"><path d="M56.092 38.277c-8.98 5.923-16.069 13.067-14.576 16.47.596 1.358 2.969 2.626 6.118 3.06 3.394.467 15.831-.575 16.706-1.608.874-1.033-8.248-17.922-8.248-17.922z" fill="#FFC800"/><path fill-rule="evenodd" clip-rule="evenodd" d="M64.29 175.804c1.803 2.927 5.349 5.727 9.12 5.727h.025l.027.001c12.663.624 32.97.309 45.51.114 4.135-.064 7.425-.115 9.319-.115 4.406 0 7.912-2.828 9.682-5.724.893-1.46 1.248-2.785 1.172-3.633-.037-.404-.161-.621-.281-.735-.094-.091-.269-.198-.61-.23l-.019.009a46.635 46.635 0 0 1-2.954 1.167c-1.749.622-4.041 1.309-5.77 1.309h-5.878v-2.14h5.878c1.319 0 3.296-.56 5.053-1.185a45.1 45.1 0 0 0 2.813-1.112l.172-.076.043-.019.011-.005.002-.001-73.316 6.648zm73.315-6.648.211-.096h.232c.893 0 1.697.258 2.297.833.592.567.863 1.325.932 2.09.134 1.49-.465 3.284-1.477 4.94-2.042 3.34-6.158 6.748-11.509 6.748-1.847 0-5.087.05-9.174.113-12.519.195-32.988.513-45.735-.113-4.756-.013-8.881-3.442-10.916-6.745-1.013-1.644-1.645-3.474-1.4-5.016.13-.81.51-1.562 1.215-2.097.69-.523 1.582-.753 2.59-.753h.259l.231.118.01.005.037.019.152.076a40.374 40.374 0 0 0 2.461 1.109c.743.304 1.544.601 2.296.82.77.225 1.416.347 1.872.347h4.881v2.14h-4.88c-.763 0-1.642-.189-2.473-.433a25.91 25.91 0 0 1-2.507-.894 40.74 40.74 0 0 1-2.577-1.16c-.55.031-.874.172-1.059.312-.195.147-.336.369-.393.728-.127.796.2 2.084 1.108 3.557l73.316-6.648zm-47.155 4.538v-2.14h11.01v2.14H90.45zm11.01-1.07v1.07h7.723v-2.14h-7.722l-.001 1.07z" fill="#1A1A1A"/><path fill-rule="evenodd" clip-rule="evenodd" d="M118.269 115.113c-.714 4.653-2.755 20.849-1.07 31.747.747 4.835 2.41 9.837 3.95 14.469.636 1.913 1.251 3.762 1.771 5.511.869 2.916 1.494 5.622 1.364 7.751-.066 1.082-.331 2.108-.94 2.945-.625.859-1.534 1.415-2.681 1.679-5.11 1.176-12.972-2.245-17.852-17.665-3.816-12.057-3.25-19.49-2.82-25.132.12-1.577.23-3.015.23-4.375 0-1.21-.135-2.295-.359-3.161-.231-.894-.53-1.447-.776-1.703a.642.642 0 0 0-.158-.124l-.006-.003a.295.295 0 0 0-.07.026c-.223.112-.678.529-1.242 1.674-.38.77-.785 1.512-1.2 2.274-.954 1.749-1.965 3.601-2.865 6.147-1.271 3.594-2.28 8.513-2.28 16.072 0 3.035.22 5.773.439 8.281l.053.608c.199 2.256.383 4.358.365 6.273-.02 2.097-.281 4.056-1.078 5.856-.804 1.817-2.12 3.398-4.13 4.789-1.926 1.334-3.828 1.615-5.573.856-1.652-.719-2.947-2.284-3.963-4.145-2.044-3.743-3.298-9.317-3.858-14.419-.738-6.721.408-16.753 1.573-25.223.262-1.907.525-3.731.769-5.429.304-2.11.58-4.026.792-5.665.19-1.474.325-2.687.38-3.582a9.73 9.73 0 0 0 .02-1.039 2.857 2.857 0 0 0-.01-.129 1.578 1.578 0 0 0-.398.056c-.605.148-1.503.582-2.672 1.366-2.312 1.55-5.383 4.263-8.798 7.925-3.534 3.789-7.057 5.948-10.216 6.642-3.193.701-6.025-.105-7.91-2.231-1.897-2.138-2.412-5.575-1.685-9.125.736-3.593 2.768-7.488 6.248-10.741a397.687 397.687 0 0 0 11.108-10.858c3.927-3.997 7.559-7.901 9.29-10.253-1.36-7.865-3.809-21.85-7.346-33.433-2.983-9.77-5.742-14.868-8.344-19.677-.53-.98-1.054-1.95-1.572-2.943l1.898-.989c.507.972 1.023 1.926 1.55 2.899 2.614 4.83 5.467 10.101 8.516 20.085 3.647 11.943 6.139 26.357 7.48 34.115l.079.455-.253.362c-1.73 2.471-5.666 6.701-9.77 10.878a401.378 401.378 0 0 1-11.174 10.923c-3.165 2.958-4.969 6.46-5.613 9.606-.652 3.189-.09 5.833 1.189 7.276 1.29 1.454 3.286 2.124 5.85 1.561 2.596-.571 5.757-2.418 9.11-6.012 3.47-3.722 6.668-6.565 9.17-8.242 1.238-.83 2.383-1.429 3.354-1.667.487-.12 1.014-.171 1.517-.044.543.137 1 .468 1.284.98.199.358.24.8.255 1.104.02.361.009.795-.02 1.279-.06.972-.202 2.245-.394 3.728-.213 1.643-.493 3.591-.8 5.722a846.54 846.54 0 0 0-.764 5.389c-1.171 8.522-2.269 18.285-1.565 24.698.55 5.003 1.764 10.249 3.609 13.627.927 1.698 1.93 2.769 2.939 3.208.915.398 2.035.361 3.5-.653 1.726-1.196 2.764-2.482 3.39-3.895.633-1.431.877-3.066.895-5.012.018-1.805-.158-3.802-.359-6.09l-.05-.584c-.22-2.515-.448-5.332-.448-8.467 0-7.758 1.037-12.924 2.402-16.785.96-2.714 2.104-4.815 3.086-6.615.393-.721.76-1.395 1.078-2.04.617-1.252 1.334-2.205 2.204-2.64a2.219 2.219 0 0 1 1.502-.2c.503.115.913.398 1.233.73.618.642 1.036 1.609 1.306 2.651.277 1.071.427 2.339.427 3.697 0 1.494-.115 3.019-.239 4.658-.425 5.622-.95 12.581 2.729 24.204 4.753 15.021 11.876 17.019 15.331 16.225.726-.167 1.155-.475 1.429-.852.29-.398.484-.981.535-1.817.105-1.71-.408-4.086-1.278-7.011-.483-1.619-1.071-3.388-1.69-5.251-1.56-4.694-3.319-9.989-4.096-15.012-1.741-11.261.357-27.756 1.07-32.398l2.116.324z" fill="#1A1A1A"/><path fill-rule="evenodd" clip-rule="evenodd" d="m126.44 117.58 2.14.009-.027 6.038c.03.302.019.748-.016 1.231a20.138 20.138 0 0 1-.262 2.044c-.274 1.532-.781 3.407-1.678 4.996-.896 1.585-2.273 3.036-4.326 3.372-2.032.332-4.391-.485-7.127-2.631l1.322-1.684c2.527 1.983 4.283 2.395 5.459 2.203 1.154-.189 2.075-1.015 2.808-2.312.731-1.294 1.182-2.907 1.435-4.32.125-.699.198-1.331.234-1.823a9.438 9.438 0 0 0 .025-.802.658.658 0 0 0-.005-.07l-.01-.075.028-6.176zM10.64 176.805h32.823v2.14H10.639v-2.14zM19.378 187.075H52.2v2.14H19.377v-2.14z" fill="#1A1A1A"/><path fill-rule="evenodd" clip-rule="evenodd" d="M118.219 68.74c-1.426-2.617-2.565-4.93-3.02-6.626-2.992-11.166-4.502-20.086-5.622-27.983a728.46 728.46 0 0 1-.849-6.229c-.72-5.398-1.387-10.4-2.429-15.537l2.098-.425c1.058 5.213 1.739 10.319 2.462 15.744.266 1.998.538 4.04.837 6.146 1.114 7.844 2.608 16.674 5.571 27.73.38 1.415 1.394 3.516 2.832 6.157.938 1.722 2.025 3.618 3.185 5.643a675.842 675.842 0 0 1 1.865 3.266c3.671 6.475 7.627 13.85 9.33 20.203.914 3.41 1.631 6.37 2.107 8.696.466 2.278.73 4.074.67 5.082-.007.108-.007.306-.008.577-.003 1.398-.011 4.738-.874 7.642-.521 1.754-1.396 3.53-2.911 4.687-1.569 1.197-3.652 1.604-6.283.931l.531-2.073c2.129.545 3.505.164 4.452-.559 1-.763 1.697-2.039 2.159-3.595.752-2.533.77-5.331.78-6.863.003-.375.005-.674.017-.876.041-.681-.155-2.204-.63-4.524-.465-2.27-1.17-5.185-2.078-8.571-1.622-6.05-5.438-13.198-9.124-19.702a765.446 765.446 0 0 0-1.844-3.228c-1.169-2.04-2.276-3.972-3.224-5.713z" fill="#1A1A1A"/><path fill-rule="evenodd" clip-rule="evenodd" d="M40.386 51.333c.52-1.344 1.5-2.852 2.97-4.552 1.736-2.01 5.59-5.26 10.569-8.95 5.007-3.71 11.23-7.923 17.767-11.866 6.535-3.942 13.405-7.626 19.704-10.27 6.26-2.626 12.1-4.288 16.519-4.036l-.122 2.137c-3.902-.223-9.358 1.267-15.568 3.873-6.171 2.59-12.945 6.218-19.427 10.128C66.32 31.705 60.153 35.88 55.2 39.551c-4.98 3.691-8.658 6.817-10.224 8.628-1.385 1.605-2.195 2.9-2.592 3.925-.392 1.014-.351 1.686-.162 2.144.194.468.623.91 1.401 1.295.781.387 1.831.672 3.104.858 5.138.75 12.83-.258 17.278-.924l.317 2.116c-4.386.657-12.399 1.73-17.905.926-1.389-.203-2.683-.533-3.744-1.058-1.064-.526-1.973-1.291-2.43-2.396-.46-1.113-.38-2.377.144-3.732zM81.887 190.46a1.606 1.606 0 1 0 0-3.211 1.606 1.606 0 0 0 0 3.211zm0 2.14a3.746 3.746 0 1 0 .001-7.492 3.746 3.746 0 0 0 0 7.492zM119.352 190.46a1.606 1.606 0 1 0 0-3.211 1.606 1.606 0 0 0 0 3.211zm0 2.14a3.746 3.746 0 1 0-3.747-3.745 3.746 3.746 0 0 0 3.747 3.745z" fill="#1A1A1A"/></svg>