<svg width="85" height="24" fill="none" xmlns="http://www.w3.org/2000/svg"><path d="M19.28 7.64C19.28 2.17 15.72 0 9.84 0H0v23.5h5.4V4.88h4.48c2.71 0 4.14.54 4.14 3.16 0 2.6-1.4 3.5-4.14 3.5H5.4l8.11 11.94h6.35l-6.55-9.17c3.66-.8 5.97-3.22 5.97-6.68v.01zm43.9 2.85a93.86 93.86 0 0 0-1.7 6.89h-.07c-.44-1.66-1.02-3.84-1.73-6.18l-2-6.28h-4.76l-2.04 6.28a88.867 88.867 0 0 0-1.73 6.18h-.06c-.41-1.93-.82-4.17-1.67-7l-1.6-5.46h-5.09l5.95 18.57h4.88l2.14-7a72.393 72.393 0 0 0 1.57-5.76h.06c.48 2 .82 3.4 1.57 5.77l2.13 7h4.9l5.93-18.58h-5.05l-1.64 5.57h.01zm-32.9 9.06c-2.58 0-4.14-2.2-4.14-5.36 0-3.12 1.6-5.36 4.14-5.36 2.55 0 4.1 2.24 4.1 5.4.04 3.15-1.52 5.32-4.1 5.32zm0-15.14c-6.14 0-9.17 4.62-9.17 9.78 0 5.23 3.03 9.78 9.17 9.78 6.14 0 9.16-4.55 9.16-9.78 0-5.13-3.02-9.78-9.16-9.78zm54.69 13.45c0 3.56-2.75 6.14-6.93 6.14-4.62 0-6.55-2.07-6.55-2.07v-4.65h.14a9.55 9.55 0 0 0 6 2.37c1.57 0 2.31-.6 2.31-1.52 0-.75-.4-1.12-1.76-1.57l-1.94-.64c-2.75-.92-4.95-2.2-4.95-5.7 0-3.47 2.75-5.8 6.92-5.8h.51c3.7.13 5.7 1.62 5.7 1.62v4.79h-.13a9.24 9.24 0 0 0-5.67-2.07c-1.63 0-2.34.57-2.34 1.35 0 .78.6 1.2 1.73 1.6l1.86.68c2.72 1.02 5.1 2.27 5.1 5.47z" fill="#fff"/></svg>