<svg width="37" height="35" fill="none" xmlns="http://www.w3.org/2000/svg"><path d="m16.205 14.21 1.493 1.41 3.504-3.31 2.764 2.61-3.505 3.31 1.493 1.41 3.505-3.31 4.235 4L36.471 14l-.403-6.52-2.731-2.61 3.356-3.16L35.189.29l-3.346 3.17L29.112.88 22.177.5l-6.724 6.38 4.235 4-3.483 3.33zm6.83-11.66 5.156.28 5.813 5.49.296 4.87-4.585 4.33L18.45 6.88l4.585-4.33zM2.81 33.71l3.483-3.31L9.036 33l6.904.38L22.706 27 8.412 13.5l-6.724 6.39.37 6.52L4.813 29l-3.505 3.29 1.504 1.42zm1.058-13 4.543-4.38L19.709 27l-4.584 4.34L9.968 31l-5.792-5.47-.307-4.82z" fill="#1A1A1A"/><path d="M22.706 2 17.94 7l11.647 12 5.824-5-.53-6L28 2h-5.294z" fill="#FFC800"/><path d="m16.205 14.21 1.493 1.41 3.504-3.31 2.764 2.61-3.505 3.31 1.493 1.41 3.505-3.31 4.235 4L36.471 14l-.403-6.52-2.731-2.61 3.356-3.16L35.189.29l-3.346 3.17L29.112.88 22.177.5l-6.724 6.38 4.235 4-3.483 3.33zm6.83-11.66 5.156.28 5.813 5.49.296 4.87-4.585 4.33L18.45 6.88l4.585-4.33zM2.81 33.71l3.483-3.31L9.036 33l6.904.38L22.706 27 8.412 13.5l-6.724 6.39.37 6.52L4.813 29l-3.505 3.29 1.504 1.42zm1.058-13 4.543-4.38L19.709 27l-4.584 4.34L9.968 31l-5.792-5.47-.307-4.82z" fill="#3A032D"/></svg>