<svg width="37" height="35" fill="none" xmlns="http://www.w3.org/2000/svg"><path d="M18 0C13.226 0 8.648 1.791 5.272 4.98 1.896 8.166 0 12.49 0 17c0 4.509 1.896 8.833 5.272 12.02C8.648 32.21 13.226 34 18 34s9.352-1.791 12.728-4.98C34.104 25.834 36 21.51 36 17c0-4.509-1.896-8.833-5.272-12.02C27.352 1.79 22.774 0 18 0zm15.882 16h-8.068c-.137-5.81-1.461-10.65-3.579-13.44 3.178.823 6.006 2.558 8.093 4.966 2.087 2.408 3.329 5.37 3.554 8.474zM18 32c-2.605 0-5.474-5.7-5.697-14h11.393c-.222 8.3-3.091 14-5.696 14zm-5.697-16C12.527 7.7 15.396 2 18 2s5.474 5.7 5.697 14H12.303zm1.462-13.44c-2.118 2.79-3.442 7.63-3.58 13.44H2.172c.222-3.098 1.456-6.055 3.533-8.462C7.78 5.13 10.597 3.39 13.764 2.56zM2.17 18h8.015c.137 5.81 1.461 10.65 3.579 13.44-3.168-.831-5.985-2.57-8.061-4.978C3.627 24.055 2.393 21.098 2.17 18zm20.064 13.44c2.118-2.79 3.442-7.63 3.58-13.44h8.067c-.225 3.105-1.467 6.066-3.554 8.474-2.087 2.408-4.915 4.143-8.093 4.966z" fill="#1A1A1A"/><path d="M18 33c9.356 0 16.941-7.163 16.941-16S27.356 1 18 1C8.644 1 1.059 8.163 1.059 17S8.644 33 18 33z" fill="#FFC800"/><path d="M18 0C13.226 0 8.648 1.791 5.272 4.98 1.896 8.166 0 12.49 0 17c0 4.509 1.896 8.833 5.272 12.02C8.648 32.21 13.226 34 18 34s9.352-1.791 12.728-4.98C34.104 25.834 36 21.51 36 17c0-4.509-1.896-8.833-5.272-12.02C27.352 1.79 22.774 0 18 0zm15.882 16h-8.068c-.137-5.81-1.461-10.65-3.579-13.44 3.178.823 6.006 2.558 8.093 4.966 2.087 2.408 3.329 5.37 3.554 8.474zM18 32c-2.605 0-5.474-5.7-5.697-14h11.393c-.222 8.3-3.091 14-5.696 14zm-5.697-16C12.527 7.7 15.396 2 18 2s5.474 5.7 5.697 14H12.303zm1.462-13.44c-2.118 2.79-3.442 7.63-3.58 13.44H2.172c.222-3.098 1.456-6.055 3.533-8.462C7.78 5.13 10.597 3.39 13.764 2.56zM2.17 18h8.015c.137 5.81 1.461 10.65 3.579 13.44-3.168-.831-5.985-2.57-8.061-4.978C3.627 24.055 2.393 21.098 2.17 18zm20.064 13.44c2.118-2.79 3.442-7.63 3.58-13.44h8.067c-.225 3.105-1.467 6.066-3.554 8.474-2.087 2.408-4.915 4.143-8.093 4.966z" fill="#3A032D"/></svg>