<svg width="37" height="35" fill="none" xmlns="http://www.w3.org/2000/svg"><path d="M29.647 0H0v34h29.647v-7H36V7h-6.353V0zM27.53 32H2.118V2h25.411v5H14.823v20H27.53v5zM16.941 21h4.236v4H16.94v-4zm0-6h4.236v4H16.94v-4zm0-2V9h4.236v4H16.94zm6.353 8h4.235v4h-4.235v-4zm0-2v-4h4.235v4h-4.235zm0-6V9h4.235v4h-4.235zm10.588 12h-4.235v-4h4.235v4zm0-6h-4.235v-4h4.235v4zm0-10v4h-4.235V9h4.235z" fill="#1A1A1A"/><path d="M16.941 9h16.941v16h-16.94V9z" fill="#FFC800"/><path d="M29.647 0H0v34h29.647v-7H36V7h-6.353V0zM27.53 32H2.118V2h25.411v5H14.823v20H27.53v5zM16.941 21h4.236v4H16.94v-4zm0-6h4.236v4H16.94v-4zm0-2V9h4.236v4H16.94zm6.353 8h4.235v4h-4.235v-4zm0-2v-4h4.235v4h-4.235zm0-6V9h4.235v4h-4.235zm10.588 12h-4.235v-4h4.235v4zm0-6h-4.235v-4h4.235v4zm0-10v4h-4.235V9h4.235z" fill="#3A032D"/></svg>