<svg width="60" height="60" fill="none" xmlns="http://www.w3.org/2000/svg"><path fill-rule="evenodd" clip-rule="evenodd" d="M36.393 51.273H6.885v-22.91H21.64V8.727h17.705v9.818h14.754v32.727H36.394zm0-3.273H24.59V12h11.803v36zm2.951 0h11.803V21.818H39.344V48zM21.64 31.636V48H9.836V31.636H21.64z" fill="#1A1A1A"/><path d="M53.115 37.09H7.869v13.092h45.246V37.09z" fill="#FFC800"/><path fill-rule="evenodd" clip-rule="evenodd" d="M36.393 51.273H6.885v-22.91H21.64V8.727h17.705v9.818h14.754v32.727H36.394zm0-3.273H24.59V12h11.803v36zm2.951 0h11.803V21.818H39.344V48zM21.64 31.636V48H9.836V31.636H21.64z" fill="#3A032D"/></svg>