<svg width="60" height="60" fill="none" xmlns="http://www.w3.org/2000/svg"><path d="M48.197 8.727h-35.41v44.727h35.41V8.727z" fill="#FFC800"/><path d="M45.246 8.727H15.738V12h29.508V8.727z" fill="#3A032D"/><path d="M39.344 9.818h-2.95V3.273H24.59v6.545h-2.95V0h17.704v9.818z" fill="#3A032D"/><path d="M54.098 60H6.885V0h8.853v3.273H9.836v53.454h41.312V3.273h-5.902V0h8.852v60z" fill="#3A032D"/><path d="M45.246 25.09H15.738v3.273h29.508v-3.272zm0 7.637H15.738V36h29.508v-3.273zm-6.885 7.637H15.738v3.272H38.36v-3.273z" fill="#3A032D"/><path d="M45.246 8.727H15.738V12h29.508V8.727z" fill="#1A1A1A"/><path d="M39.344 9.818h-2.95V3.273H24.59v6.545h-2.95V0h17.704v9.818z" fill="#1A1A1A"/><path d="M54.098 60H6.885V0h8.853v3.273H9.836v53.454h41.312V3.273h-5.902V0h8.852v60z" fill="#1A1A1A"/><path d="M45.246 25.09H15.738v3.273h29.508v-3.272zm0 7.637H15.738V36h29.508v-3.273zm-6.885 7.637H15.738v3.272H38.36v-3.273z" fill="#1A1A1A"/></svg>