<svg width="34" height="34" fill="none" xmlns="http://www.w3.org/2000/svg"><path fill-rule="evenodd" clip-rule="evenodd" d="M2 11v12h12V11H2zM0 25h16V9H0v16z" fill="#1A1A1A"/><path fill-rule="evenodd" clip-rule="evenodd" d="m22.586 12 5.707-5.707 1.414 1.414L23.414 14H15v-2h7.586zm0 10 5.707 5.707 1.414-1.414L23.414 20H15v2h7.586zM13 27.714l6.824 2.34-.648 1.892L11 29.143V25h2v2.714zm0-21.472 6.879-2.817-.758-1.85L11 4.9V9h2V6.242zM24.764 16l3.789-1.894.894 1.788L25.237 18H15v-2h9.764z" fill="#1A1A1A"/><path fill-rule="evenodd" clip-rule="evenodd" d="M30 5v2h2V5h-2zm-2 4h6V3h-6v6zm2 5v2h2v-2h-2zm-2 4h6v-6h-6v6zm2 9v2h2v-2h-2zm-2 4h6v-6h-6v6zm-7-1v2h2v-2h-2zm-2 4h6v-6h-6v6zm2-30V2h2v2h-2zm-2-4h6v6h-6V0z" fill="#1A1A1A"/></svg>