<svg width="34" height="34" fill="none" xmlns="http://www.w3.org/2000/svg"><path fill-rule="evenodd" clip-rule="evenodd" d="M10 5a5 5 0 1 0 0 10 5 5 0 0 0 0-10zm-7 5a7 7 0 1 1 14 0 7 7 0 0 1-14 0z" fill="#1A1A1A"/><path fill-rule="evenodd" clip-rule="evenodd" d="M32.832 14.555 27.535 22.5h-5.917l-3.724 7.447-1.788-.894 4.276-8.553h6.083l4.703-7.055 1.664 1.11z" fill="#000"/><path fill-rule="evenodd" clip-rule="evenodd" d="M32 15h-6v-2h8v8h-2v-6zM4.4 20.5H16v2H5.6l-3.718 6.97-1.764-.94L4.4 20.5z" fill="#000"/></svg>